<svg xmlns="http://www.w3.org/2000/svg" xmlns:xlink="http://www.w3.org/1999/xlink" width="500" zoomAndPan="magnify" viewBox="0 0 375 60" height="80" preserveAspectRatio="xMidYMid meet" version="1.0"><defs><g/><clipPath id="09bf96c249"><path d="M 3 4.027344 L 54.945312 4.027344 L 54.945312 55.972656 L 3 55.972656 Z M 3 4.027344 " clip-rule="nonzero"/></clipPath><clipPath id="9918ed389f"><path d="M 0 0.0273438 L 51.945312 0.0273438 L 51.945312 51.972656 L 0 51.972656 Z M 0 0.0273438 " clip-rule="nonzero"/></clipPath><clipPath id="b682b140a0"><rect x="0" width="52" y="0" height="52"/></clipPath><clipPath id="668f2da306"><rect x="0" width="174" y="0" height="48"/></clipPath><clipPath id="2eab7084ba"><path d="M 15.007812 10.84375 L 39 10.84375 L 39 39 L 15.007812 39 Z M 15.007812 10.84375 " clip-rule="nonzero"/></clipPath><clipPath id="62c961b8ef"><path d="M 15.007812 27 L 41 27 L 41 42 L 15.007812 42 Z M 15.007812 27 " clip-rule="nonzero"/></clipPath><clipPath id="e96d7a40d1"><path d="M 36 44 L 42.757812 44 L 42.757812 49.09375 L 36 49.09375 Z M 36 44 " clip-rule="nonzero"/></clipPath><clipPath id="7a82f11a93"><rect x="0" width="131" y="0" height="48"/></clipPath></defs><g clip-path="url(#09bf96c249)"><g transform="matrix(1, 0, 0, 1, 3, 4)"><g clip-path="url(#b682b140a0)"><g clip-path="url(#9918ed389f)"><path fill="#c3976c" d="M 0 0.0273438 L 51.945312 0.0273438 L 51.945312 51.972656 L 0 51.972656 Z M 0 0.0273438 " fill-opacity="1" fill-rule="nonzero"/></g></g></g></g><g transform="matrix(1, 0, 0, 1, 199, 6)"><g clip-path="url(#668f2da306)"><g fill="#f6f6f4" fill-opacity="1"><g transform="translate(0.248288, 36.66117)"><g><path d="M 1.9375 0 L 1.9375 -18.5625 L 4.609375 -18.5625 L 4.609375 -16.40625 L 4.75 -16.40625 C 5.039062 -17.125 5.445312 -17.734375 5.96875 -18.234375 C 6.5 -18.742188 7.28125 -19 8.3125 -19 C 9.394531 -19 10.195312 -18.726562 10.71875 -18.1875 C 11.25 -17.644531 11.570312 -16.941406 11.6875 -16.078125 L 11.796875 -16.078125 C 12.140625 -16.921875 12.617188 -17.617188 13.234375 -18.171875 C 13.859375 -18.722656 14.722656 -19 15.828125 -19 C 17.335938 -19 18.347656 -18.46875 18.859375 -17.40625 C 19.378906 -16.351562 19.640625 -14.84375 19.640625 -12.875 L 19.640625 0 L 16.984375 0 L 16.984375 -12.421875 C 16.984375 -14.003906 16.820312 -15.097656 16.5 -15.703125 C 16.175781 -16.316406 15.582031 -16.625 14.71875 -16.625 C 13.945312 -16.625 13.320312 -16.378906 12.84375 -15.890625 C 12.363281 -15.398438 12.125 -14.648438 12.125 -13.640625 L 12.125 0 L 9.46875 0 L 9.46875 -12.421875 C 9.46875 -14.003906 9.304688 -15.097656 8.984375 -15.703125 C 8.660156 -16.316406 8.078125 -16.625 7.234375 -16.625 C 6.460938 -16.625 5.832031 -16.378906 5.34375 -15.890625 C 4.851562 -15.398438 4.609375 -14.648438 4.609375 -13.640625 L 4.609375 0 Z M 1.9375 0 "/></g></g></g><g fill="#f6f6f4" fill-opacity="1"><g transform="translate(21.836097, 36.66117)"><g><path d="M 17.8125 0 C 16.6875 0 15.882812 -0.285156 15.40625 -0.859375 C 14.925781 -1.441406 14.625 -2.160156 14.5 -3.015625 L 14.328125 -3.015625 C 13.910156 -1.941406 13.253906 -1.097656 12.359375 -0.484375 C 11.460938 0.128906 10.257812 0.4375 8.75 0.4375 C 6.800781 0.4375 5.25 -0.0664062 4.09375 -1.078125 C 2.945312 -2.085938 2.375 -3.46875 2.375 -5.21875 C 2.375 -6.945312 3.003906 -8.273438 4.265625 -9.203125 C 5.523438 -10.140625 7.554688 -10.609375 10.359375 -10.609375 L 14.328125 -10.609375 L 14.328125 -12.453125 C 14.328125 -13.816406 13.941406 -14.835938 13.171875 -15.515625 C 12.398438 -16.203125 11.304688 -16.546875 9.890625 -16.546875 C 8.648438 -16.546875 7.632812 -16.300781 6.84375 -15.8125 C 6.050781 -15.320312 5.414062 -14.65625 4.9375 -13.8125 L 2.984375 -15.25 C 3.222656 -15.738281 3.546875 -16.207031 3.953125 -16.65625 C 4.359375 -17.113281 4.863281 -17.515625 5.46875 -17.859375 C 6.070312 -18.210938 6.753906 -18.488281 7.515625 -18.6875 C 8.285156 -18.894531 9.140625 -19 10.078125 -19 C 12.253906 -19 13.984375 -18.445312 15.265625 -17.34375 C 16.554688 -16.238281 17.203125 -14.703125 17.203125 -12.734375 L 17.203125 -2.515625 L 19.796875 -2.515625 L 19.796875 0 Z M 9.25 -1.984375 C 9.988281 -1.984375 10.664062 -2.070312 11.28125 -2.25 C 11.894531 -2.425781 12.425781 -2.664062 12.875 -2.96875 C 13.332031 -3.269531 13.6875 -3.628906 13.9375 -4.046875 C 14.195312 -4.460938 14.328125 -4.910156 14.328125 -5.390625 L 14.328125 -8.453125 L 10.359375 -8.453125 C 8.628906 -8.453125 7.367188 -8.210938 6.578125 -7.734375 C 5.785156 -7.253906 5.390625 -6.5625 5.390625 -5.65625 L 5.390625 -4.890625 C 5.390625 -3.929688 5.734375 -3.207031 6.421875 -2.71875 C 7.109375 -2.226562 8.050781 -1.984375 9.25 -1.984375 Z M 9.25 -1.984375 "/></g></g></g><g fill="#f6f6f4" fill-opacity="1"><g transform="translate(43.423907, 36.66117)"><g><path d="M 2.765625 -2.453125 L 8.203125 -2.453125 L 8.203125 -16.125 L 2.765625 -16.125 L 2.765625 -18.5625 L 11.078125 -18.5625 L 11.078125 -13.890625 L 11.265625 -13.890625 C 11.648438 -15.347656 12.375 -16.488281 13.4375 -17.3125 C 14.507812 -18.144531 15.875 -18.5625 17.53125 -18.5625 L 20.109375 -18.5625 L 20.109375 -15.6875 L 16.625 -15.6875 C 14.96875 -15.6875 13.628906 -15.207031 12.609375 -14.25 C 11.585938 -13.289062 11.078125 -12.03125 11.078125 -10.46875 L 11.078125 -2.453125 L 18.28125 -2.453125 L 18.28125 0 L 2.765625 0 Z M 2.765625 -2.453125 "/></g></g></g><g fill="#f6f6f4" fill-opacity="1"><g transform="translate(65.011717, 36.66117)"><g><path d="M 3.78125 -26.625 L 6.65625 -26.625 L 6.65625 -9.828125 L 6.796875 -9.828125 L 10.046875 -12.875 L 16.234375 -18.5625 L 19.75 -18.5625 L 12.0625 -11.296875 L 20.65625 0 L 17.09375 0 L 9.859375 -9.640625 L 6.65625 -6.734375 L 6.65625 0 L 3.78125 0 Z M 3.78125 -26.625 "/></g></g></g><g fill="#f6f6f4" fill-opacity="1"><g transform="translate(86.599527, 36.66117)"><g><path d="M 15.296875 -3.015625 L 15.15625 -3.015625 C 13.945312 -0.710938 12.035156 0.4375 9.421875 0.4375 C 7.148438 0.4375 5.367188 -0.410156 4.078125 -2.109375 C 2.796875 -3.816406 2.15625 -6.207031 2.15625 -9.28125 C 2.15625 -12.351562 2.796875 -14.738281 4.078125 -16.4375 C 5.367188 -18.144531 7.148438 -19 9.421875 -19 C 12.035156 -19 13.945312 -17.847656 15.15625 -15.546875 L 15.296875 -15.546875 L 15.296875 -26.625 L 18.171875 -26.625 L 18.171875 0 L 15.296875 0 Z M 10.546875 -2.125 C 11.191406 -2.125 11.800781 -2.207031 12.375 -2.375 C 12.957031 -2.539062 13.460938 -2.785156 13.890625 -3.109375 C 14.316406 -3.429688 14.65625 -3.828125 14.90625 -4.296875 C 15.164062 -4.765625 15.296875 -5.3125 15.296875 -5.9375 L 15.296875 -12.625 C 15.296875 -13.25 15.164062 -13.796875 14.90625 -14.265625 C 14.65625 -14.734375 14.316406 -15.128906 13.890625 -15.453125 C 13.460938 -15.773438 12.957031 -16.019531 12.375 -16.1875 C 11.800781 -16.351562 11.191406 -16.4375 10.546875 -16.4375 C 8.867188 -16.4375 7.566406 -15.925781 6.640625 -14.90625 C 5.710938 -13.894531 5.25 -12.550781 5.25 -10.875 L 5.25 -7.703125 C 5.25 -6.023438 5.710938 -4.675781 6.640625 -3.65625 C 7.566406 -2.632812 8.867188 -2.125 10.546875 -2.125 Z M 10.546875 -2.125 "/></g></g></g><g fill="#f6f6f4" fill-opacity="1"><g transform="translate(108.187337, 36.66117)"><g><path d="M 10.796875 0.4375 C 9.503906 0.4375 8.332031 0.207031 7.28125 -0.25 C 6.238281 -0.707031 5.351562 -1.359375 4.625 -2.203125 C 3.894531 -3.054688 3.335938 -4.078125 2.953125 -5.265625 C 2.566406 -6.453125 2.375 -7.789062 2.375 -9.28125 C 2.375 -10.75 2.566406 -12.082031 2.953125 -13.28125 C 3.335938 -14.476562 3.894531 -15.5 4.625 -16.34375 C 5.351562 -17.195312 6.238281 -17.851562 7.28125 -18.3125 C 8.332031 -18.769531 9.503906 -19 10.796875 -19 C 12.085938 -19 13.253906 -18.769531 14.296875 -18.3125 C 15.347656 -17.851562 16.238281 -17.195312 16.96875 -16.34375 C 17.695312 -15.5 18.253906 -14.476562 18.640625 -13.28125 C 19.023438 -12.082031 19.21875 -10.75 19.21875 -9.28125 C 19.21875 -7.789062 19.023438 -6.453125 18.640625 -5.265625 C 18.253906 -4.078125 17.695312 -3.054688 16.96875 -2.203125 C 16.238281 -1.359375 15.347656 -0.707031 14.296875 -0.25 C 13.253906 0.207031 12.085938 0.4375 10.796875 0.4375 Z M 10.796875 -2.046875 C 12.398438 -2.046875 13.691406 -2.523438 14.671875 -3.484375 C 15.660156 -4.453125 16.15625 -5.941406 16.15625 -7.953125 L 16.15625 -10.609375 C 16.15625 -12.628906 15.660156 -14.117188 14.671875 -15.078125 C 13.691406 -16.035156 12.398438 -16.515625 10.796875 -16.515625 C 9.191406 -16.515625 7.894531 -16.035156 6.90625 -15.078125 C 5.925781 -14.117188 5.4375 -12.628906 5.4375 -10.609375 L 5.4375 -7.953125 C 5.4375 -5.941406 5.925781 -4.453125 6.90625 -3.484375 C 7.894531 -2.523438 9.191406 -2.046875 10.796875 -2.046875 Z M 10.796875 -2.046875 "/></g></g></g><g fill="#f6f6f4" fill-opacity="1"><g transform="translate(129.775147, 36.66117)"><g><path d="M 1.078125 -18.5625 L 3.640625 -18.5625 L 5.75 -2.515625 L 6.078125 -2.515625 L 9.25 -18.5625 L 12.421875 -18.5625 L 15.578125 -2.515625 L 15.90625 -2.515625 L 18.03125 -18.5625 L 20.515625 -18.5625 L 17.671875 0 L 13.921875 0 L 10.96875 -15.546875 L 10.6875 -15.546875 L 7.671875 0 L 3.921875 0 Z M 1.078125 -18.5625 "/></g></g></g><g fill="#f6f6f4" fill-opacity="1"><g transform="translate(151.362957, 36.66117)"><g><path d="M 3.53125 0 L 3.53125 -18.5625 L 6.40625 -18.5625 L 6.40625 -15.546875 L 6.546875 -15.546875 C 6.742188 -16.003906 6.984375 -16.441406 7.265625 -16.859375 C 7.554688 -17.273438 7.910156 -17.640625 8.328125 -17.953125 C 8.742188 -18.265625 9.238281 -18.515625 9.8125 -18.703125 C 10.394531 -18.898438 11.070312 -19 11.84375 -19 C 13.78125 -19 15.335938 -18.378906 16.515625 -17.140625 C 17.691406 -15.910156 18.28125 -14.164062 18.28125 -11.90625 L 18.28125 0 L 15.40625 0 L 15.40625 -11.40625 C 15.40625 -13.113281 15.03125 -14.378906 14.28125 -15.203125 C 13.539062 -16.023438 12.453125 -16.4375 11.015625 -16.4375 C 10.429688 -16.4375 9.863281 -16.363281 9.3125 -16.21875 C 8.769531 -16.082031 8.28125 -15.867188 7.84375 -15.578125 C 7.414062 -15.296875 7.066406 -14.925781 6.796875 -14.46875 C 6.535156 -14.007812 6.40625 -13.476562 6.40625 -12.875 L 6.40625 0 Z M 3.53125 0 "/></g></g></g></g></g><g clip-path="url(#2eab7084ba)"><path fill="#f6f6f4" d="M 38.964844 38.179688 L 35.574219 35.984375 C 34.03125 34.738281 29.71875 31.136719 28.304688 29.796875 C 27.023438 28.582031 25.59375 26.789062 24.5625 25.441406 C 23.601562 24.1875 22.089844 22.132812 21.355469 20.777344 C 20.28125 18.785156 19.351562 16.742188 18.335938 14.730469 C 17.867188 13.804688 17.359375 12.894531 16.910156 11.960938 C 16.796875 11.730469 16.742188 11.480469 16.648438 11.242188 C 16.636719 11.207031 16.457031 10.703125 16.257812 10.957031 C 15.859375 11.476562 15.914062 12.113281 15.820312 12.6875 C 15.695312 13.441406 15.527344 14.195312 15.40625 14.949219 C 15.132812 16.679688 14.765625 18.515625 15.222656 20.257812 C 16.027344 23.320312 18.277344 26.003906 20.703125 28.40625 C 22.59375 30.277344 24.707031 32.007812 27.230469 33.347656 C 28.777344 34.167969 33.144531 36.167969 34.796875 36.851562 C 35.757812 37.25 36.753906 37.601562 37.746094 37.949219 C 38.023438 38.046875 38.316406 38.105469 38.601562 38.179688 C 38.667969 38.195312 38.898438 38.261719 38.964844 38.179688 Z M 38.964844 38.179688 " fill-opacity="1" fill-rule="evenodd"/></g><g clip-path="url(#62c961b8ef)"><path fill="#f6f6f4" d="M 40.625 40.574219 C 37.726562 39.777344 34.6875 39.117188 32.019531 37.988281 C 28.113281 36.339844 24.652344 34.253906 21.335938 32.070312 C 19.335938 30.757812 17.28125 29.445312 15.648438 27.878906 C 15.289062 29.957031 16.574219 31.832031 17.792969 33.554688 C 18.980469 35.226562 20.28125 36.910156 22.261719 38.15625 C 24.414062 39.503906 27.109375 40.335938 29.875 40.933594 C 32.246094 41.441406 34.796875 41.730469 37.359375 41.378906 C 38.101562 41.277344 38.835938 41.121094 39.566406 40.960938 C 39.832031 40.90625 40.078125 40.808594 40.332031 40.726562 C 40.414062 40.703125 40.597656 40.652344 40.625 40.574219 Z M 40.625 40.574219 " fill-opacity="1" fill-rule="evenodd"/></g><path fill="#f6f6f4" d="M 41.898438 42.144531 C 41.078125 42.171875 40.050781 42.371094 39.125 42.503906 C 38.082031 42.648438 37.09375 42.738281 36.191406 42.769531 C 35.207031 42.804688 34.101562 42.761719 33.324219 42.722656 C 31.398438 42.621094 29.71875 42.394531 28.097656 42.144531 C 25.785156 41.785156 23.515625 41.382812 21.929688 40.707031 C 21.425781 41.515625 21.660156 42.152344 22.15625 42.703125 C 22.898438 43.523438 24.203125 44.199219 26.078125 44.597656 C 27.109375 44.816406 28.195312 45.011719 29.597656 45.046875 C 30.054688 45.058594 30.53125 45.0625 31.023438 45.054688 C 31.359375 45.050781 31.714844 45.035156 32.078125 45.015625 C 34.542969 44.875 38.519531 44.21875 40.789062 42.902344 C 41.308594 42.601562 41.570312 42.4375 41.898438 42.144531 Z M 41.898438 42.144531 " fill-opacity="1" fill-rule="evenodd"/><path fill="#f6f6f4" d="M 41.898438 42.890625 C 41.265625 43.054688 40.742188 43.59375 40.371094 43.875 C 39.796875 44.308594 39.042969 44.691406 38.332031 44.960938 C 36.980469 45.46875 36.027344 45.488281 35.148438 45.554688 C 32.914062 45.726562 30.675781 45.902344 28.824219 45.789062 C 28.644531 46.453125 29.046875 46.847656 29.601562 47.136719 C 30.601562 47.65625 32.339844 47.742188 34.46875 47.488281 C 34.769531 47.449219 35.074219 47.414062 35.398438 47.359375 C 36.589844 47.160156 38.304688 46.746094 39.898438 45.722656 C 40.078125 45.605469 40.246094 45.488281 40.398438 45.371094 C 41.476562 44.546875 41.683594 43.882812 41.792969 43.375 C 41.828125 43.214844 41.753906 43.097656 41.898438 42.890625 Z M 41.898438 42.890625 " fill-opacity="1" fill-rule="evenodd"/><g clip-path="url(#e96d7a40d1)"><path fill="#f6f6f4" d="M 42.878906 44.140625 C 42.5 44.460938 42.207031 44.910156 41.84375 45.253906 C 40.980469 46.054688 40.074219 46.757812 39.144531 47.375 C 38.472656 47.824219 37.78125 48.179688 37.097656 48.558594 C 37.003906 48.609375 36.851562 48.691406 36.761719 48.769531 C 36.714844 48.808594 36.6875 48.882812 36.71875 48.925781 C 37.273438 49.066406 37.859375 49.136719 38.464844 49.089844 C 38.847656 49.058594 39.242188 49.015625 39.632812 48.855469 C 39.949219 48.726562 40.246094 48.484375 40.535156 48.253906 C 40.996094 47.886719 41.4375 47.46875 41.835938 46.988281 C 42.351562 46.367188 42.730469 45.542969 42.855469 44.75 C 42.894531 44.519531 42.886719 44.460938 42.890625 44.238281 C 42.890625 44.207031 42.894531 44.164062 42.878906 44.140625 Z M 42.878906 44.140625 " fill-opacity="1" fill-rule="evenodd"/></g><g transform="matrix(1, 0, 0, 1, 66, 6)"><g clip-path="url(#7a82f11a93)"><g fill="#f6f6f4" fill-opacity="1"><g transform="translate(0.43965, 36.66117)"><g><path d="M 2.34375 -26.625 L 7.671875 -26.625 L 7.671875 -15.1875 L 7.875 -15.1875 C 8.09375 -15.71875 8.359375 -16.207031 8.671875 -16.65625 C 8.984375 -17.113281 9.359375 -17.515625 9.796875 -17.859375 C 10.242188 -18.210938 10.757812 -18.488281 11.34375 -18.6875 C 11.9375 -18.894531 12.601562 -19 13.34375 -19 C 14.238281 -19 15.054688 -18.847656 15.796875 -18.546875 C 16.535156 -18.242188 17.171875 -17.789062 17.703125 -17.1875 C 18.234375 -16.59375 18.644531 -15.863281 18.9375 -15 C 19.238281 -14.132812 19.390625 -13.140625 19.390625 -12.015625 L 19.390625 0 L 14.0625 0 L 14.0625 -11.296875 C 14.0625 -13.691406 13.019531 -14.890625 10.9375 -14.890625 C 10.53125 -14.890625 10.128906 -14.835938 9.734375 -14.734375 C 9.335938 -14.628906 8.984375 -14.460938 8.671875 -14.234375 C 8.359375 -14.003906 8.113281 -13.71875 7.9375 -13.375 C 7.757812 -13.039062 7.671875 -12.648438 7.671875 -12.203125 L 7.671875 0 L 2.34375 0 Z M 2.34375 -26.625 "/></g></g></g><g fill="#f6f6f4" fill-opacity="1"><g transform="translate(22.02746, 36.66117)"><g><path d="M 11.296875 0.4375 C 8.179688 0.4375 5.816406 -0.425781 4.203125 -2.15625 C 2.597656 -3.882812 1.796875 -6.238281 1.796875 -9.21875 C 1.796875 -10.726562 2.003906 -12.085938 2.421875 -13.296875 C 2.847656 -14.503906 3.445312 -15.535156 4.21875 -16.390625 C 5 -17.242188 5.945312 -17.890625 7.0625 -18.328125 C 8.1875 -18.773438 9.441406 -19 10.828125 -19 C 12.222656 -19 13.472656 -18.773438 14.578125 -18.328125 C 15.679688 -17.890625 16.613281 -17.257812 17.375 -16.4375 C 18.144531 -15.625 18.738281 -14.632812 19.15625 -13.46875 C 19.582031 -12.3125 19.796875 -11.015625 19.796875 -9.578125 L 19.796875 -7.984375 L 7.09375 -7.984375 L 7.09375 -7.671875 C 7.09375 -6.460938 7.460938 -5.492188 8.203125 -4.765625 C 8.941406 -4.035156 10.035156 -3.671875 11.484375 -3.671875 C 12.585938 -3.671875 13.535156 -3.878906 14.328125 -4.296875 C 15.117188 -4.722656 15.800781 -5.28125 16.375 -5.96875 L 19.25 -2.84375 C 18.53125 -1.957031 17.519531 -1.1875 16.21875 -0.53125 C 14.925781 0.113281 13.285156 0.4375 11.296875 0.4375 Z M 10.875 -15.1875 C 9.71875 -15.1875 8.796875 -14.832031 8.109375 -14.125 C 7.429688 -13.414062 7.09375 -12.460938 7.09375 -11.265625 L 7.09375 -10.96875 L 14.578125 -10.96875 L 14.578125 -11.265625 C 14.578125 -12.484375 14.242188 -13.441406 13.578125 -14.140625 C 12.921875 -14.835938 12.019531 -15.1875 10.875 -15.1875 Z M 10.875 -15.1875 "/></g></g></g><g fill="#f6f6f4" fill-opacity="1"><g transform="translate(43.61527, 36.66117)"><g><path d="M 2.65625 -4.140625 L 6.9375 -4.140625 L 6.9375 -14.4375 L 2.65625 -14.4375 L 2.65625 -18.5625 L 12.265625 -18.5625 L 12.265625 -13.3125 L 12.515625 -13.3125 C 12.691406 -13.988281 12.925781 -14.644531 13.21875 -15.28125 C 13.519531 -15.914062 13.90625 -16.476562 14.375 -16.96875 C 14.84375 -17.457031 15.410156 -17.84375 16.078125 -18.125 C 16.753906 -18.414062 17.546875 -18.5625 18.453125 -18.5625 L 20.21875 -18.5625 L 20.21875 -13.671875 L 16.265625 -13.671875 C 14.941406 -13.671875 13.941406 -13.28125 13.265625 -12.5 C 12.597656 -11.71875 12.265625 -10.765625 12.265625 -9.640625 L 12.265625 -4.140625 L 18.390625 -4.140625 L 18.390625 0 L 2.65625 0 Z M 2.65625 -4.140625 "/></g></g></g><g fill="#f6f6f4" fill-opacity="1"><g transform="translate(65.203079, 36.66117)"><g><path d="M 1.078125 0 L 1.078125 -18.5625 L 5.359375 -18.5625 L 5.359375 -15.828125 L 5.609375 -15.828125 C 5.898438 -16.691406 6.316406 -17.4375 6.859375 -18.0625 C 7.398438 -18.6875 8.160156 -19 9.140625 -19 C 10.941406 -19 12.046875 -17.941406 12.453125 -15.828125 L 12.671875 -15.828125 C 12.804688 -16.265625 12.984375 -16.671875 13.203125 -17.046875 C 13.421875 -17.429688 13.6875 -17.769531 14 -18.0625 C 14.3125 -18.351562 14.679688 -18.582031 15.109375 -18.75 C 15.546875 -18.914062 16.050781 -19 16.625 -19 C 19.21875 -19 20.515625 -17.09375 20.515625 -13.28125 L 20.515625 0 L 16.234375 0 L 16.234375 -12.734375 C 16.234375 -13.597656 16.082031 -14.203125 15.78125 -14.546875 C 15.476562 -14.898438 15.085938 -15.078125 14.609375 -15.078125 C 14.148438 -15.078125 13.757812 -14.925781 13.4375 -14.625 C 13.113281 -14.320312 12.953125 -13.863281 12.953125 -13.25 L 12.953125 0 L 8.640625 0 L 8.640625 -12.734375 C 8.640625 -13.597656 8.5 -14.203125 8.21875 -14.546875 C 7.945312 -14.898438 7.570312 -15.078125 7.09375 -15.078125 C 6.613281 -15.078125 6.203125 -14.925781 5.859375 -14.625 C 5.523438 -14.320312 5.359375 -13.863281 5.359375 -13.25 L 5.359375 0 Z M 1.078125 0 "/></g></g></g><g fill="#f6f6f4" fill-opacity="1"><g transform="translate(86.790889, 36.66117)"><g><path d="M 11.296875 0.4375 C 8.179688 0.4375 5.816406 -0.425781 4.203125 -2.15625 C 2.597656 -3.882812 1.796875 -6.238281 1.796875 -9.21875 C 1.796875 -10.726562 2.003906 -12.085938 2.421875 -13.296875 C 2.847656 -14.503906 3.445312 -15.535156 4.21875 -16.390625 C 5 -17.242188 5.945312 -17.890625 7.0625 -18.328125 C 8.1875 -18.773438 9.441406 -19 10.828125 -19 C 12.222656 -19 13.472656 -18.773438 14.578125 -18.328125 C 15.679688 -17.890625 16.613281 -17.257812 17.375 -16.4375 C 18.144531 -15.625 18.738281 -14.632812 19.15625 -13.46875 C 19.582031 -12.3125 19.796875 -11.015625 19.796875 -9.578125 L 19.796875 -7.984375 L 7.09375 -7.984375 L 7.09375 -7.671875 C 7.09375 -6.460938 7.460938 -5.492188 8.203125 -4.765625 C 8.941406 -4.035156 10.035156 -3.671875 11.484375 -3.671875 C 12.585938 -3.671875 13.535156 -3.878906 14.328125 -4.296875 C 15.117188 -4.722656 15.800781 -5.28125 16.375 -5.96875 L 19.25 -2.84375 C 18.53125 -1.957031 17.519531 -1.1875 16.21875 -0.53125 C 14.925781 0.113281 13.285156 0.4375 11.296875 0.4375 Z M 10.875 -15.1875 C 9.71875 -15.1875 8.796875 -14.832031 8.109375 -14.125 C 7.429688 -13.414062 7.09375 -12.460938 7.09375 -11.265625 L 7.09375 -10.96875 L 14.578125 -10.96875 L 14.578125 -11.265625 C 14.578125 -12.484375 14.242188 -13.441406 13.578125 -14.140625 C 12.921875 -14.835938 12.019531 -15.1875 10.875 -15.1875 Z M 10.875 -15.1875 "/></g></g></g><g fill="#f6f6f4" fill-opacity="1"><g transform="translate(108.378699, 36.66117)"><g><path d="M 10.578125 0.4375 C 8.515625 0.4375 6.722656 0.121094 5.203125 -0.5 C 3.679688 -1.125 2.535156 -1.976562 1.765625 -3.0625 L 4.75 -5.828125 C 5.46875 -5.035156 6.3125 -4.414062 7.28125 -3.96875 C 8.257812 -3.53125 9.367188 -3.3125 10.609375 -3.3125 C 11.671875 -3.3125 12.5 -3.472656 13.09375 -3.796875 C 13.695312 -4.117188 14 -4.617188 14 -5.296875 C 14 -5.816406 13.796875 -6.175781 13.390625 -6.375 C 12.984375 -6.582031 12.414062 -6.75 11.6875 -6.875 L 8.703125 -7.34375 C 7.867188 -7.457031 7.09375 -7.640625 6.375 -7.890625 C 5.65625 -8.148438 5.03125 -8.492188 4.5 -8.921875 C 3.96875 -9.359375 3.546875 -9.882812 3.234375 -10.5 C 2.921875 -11.125 2.765625 -11.882812 2.765625 -12.78125 C 2.765625 -14.71875 3.507812 -16.238281 5 -17.34375 C 6.488281 -18.445312 8.578125 -19 11.265625 -19 C 13.085938 -19 14.640625 -18.753906 15.921875 -18.265625 C 17.203125 -17.773438 18.226562 -17.070312 19 -16.15625 L 16.34375 -13.140625 C 15.789062 -13.734375 15.082031 -14.234375 14.21875 -14.640625 C 13.351562 -15.046875 12.304688 -15.25 11.078125 -15.25 C 9.015625 -15.25 7.984375 -14.628906 7.984375 -13.390625 C 7.984375 -12.835938 8.1875 -12.457031 8.59375 -12.25 C 9.007812 -12.050781 9.578125 -11.890625 10.296875 -11.765625 L 13.25 -11.296875 C 14.082031 -11.179688 14.859375 -10.992188 15.578125 -10.734375 C 16.296875 -10.484375 16.925781 -10.140625 17.46875 -9.703125 C 18.007812 -9.273438 18.4375 -8.75 18.75 -8.125 C 19.0625 -7.507812 19.21875 -6.753906 19.21875 -5.859375 C 19.21875 -3.921875 18.46875 -2.382812 16.96875 -1.25 C 15.46875 -0.125 13.335938 0.4375 10.578125 0.4375 Z M 10.578125 0.4375 "/></g></g></g></g></g></svg>