<svg xmlns="http://www.w3.org/2000/svg" xmlns:xlink="http://www.w3.org/1999/xlink" width="500" zoomAndPan="magnify" viewBox="0 0 375 374.999991" height="500" preserveAspectRatio="xMidYMid meet" version="1.0"><defs><clipPath id="d0c15f4569"><path d="M 78.136719 32.203125 L 266 32.203125 L 266 247 L 78.136719 247 Z M 78.136719 32.203125 " clip-rule="nonzero"/></clipPath></defs><g clip-path="url(#d0c15f4569)"><path fill="#ffffff" d="M 265.769531 246.289062 L 239.214844 229.074219 C 227.132812 219.320312 193.367188 191.105469 182.285156 180.617188 C 172.261719 171.125 161.066406 157.0625 152.984375 146.523438 C 145.441406 136.683594 133.605469 120.601562 127.878906 109.976562 C 119.460938 94.367188 112.164062 78.394531 104.210938 62.632812 C 100.550781 55.382812 96.558594 48.242188 93.035156 40.949219 C 92.148438 39.117188 91.742188 37.160156 91 35.289062 C 90.894531 35.023438 89.488281 31.070312 87.945312 33.082031 C 84.832031 37.148438 85.257812 42.121094 84.515625 46.625 C 83.542969 52.542969 82.214844 58.425781 81.277344 64.347656 C 79.140625 77.90625 76.246094 92.277344 79.828125 105.929688 C 86.117188 129.902344 103.757812 150.910156 122.757812 169.730469 C 137.546875 184.382812 154.117188 197.929688 173.871094 208.429688 C 185.992188 214.871094 220.195312 230.527344 233.125 235.871094 C 240.675781 238.992188 248.453125 241.765625 256.246094 244.488281 C 258.40625 245.242188 260.703125 245.710938 262.945312 246.285156 C 263.449219 246.417969 265.265625 246.925781 265.769531 246.289062 Z M 265.769531 246.289062 " fill-opacity="1" fill-rule="evenodd"/></g><path fill="#ffffff" d="M 278.785156 265.03125 C 256.097656 258.792969 232.292969 253.617188 211.394531 244.792969 C 180.777344 231.871094 153.6875 215.53125 127.714844 198.449219 C 112.046875 188.140625 95.964844 177.890625 83.160156 165.609375 C 80.355469 181.871094 90.414062 196.5625 99.976562 210.050781 C 109.265625 223.15625 119.445312 236.355469 134.972656 246.085938 C 151.816406 256.640625 172.941406 263.183594 194.582031 267.84375 C 213.148438 271.839844 233.152344 274.101562 253.199219 271.34375 C 259.027344 270.542969 264.785156 269.335938 270.507812 268.082031 C 272.570312 267.628906 274.503906 266.871094 276.496094 266.246094 C 277.128906 266.046875 278.566406 265.652344 278.785156 265.03125 Z M 278.785156 265.03125 " fill-opacity="1" fill-rule="evenodd"/><path fill="#ffffff" d="M 288.769531 277.324219 C 282.347656 277.542969 274.289062 279.121094 267.023438 280.140625 C 258.878906 281.289062 251.125 281.976562 244.074219 282.234375 C 236.339844 282.511719 227.699219 282.171875 221.605469 281.859375 C 206.535156 281.078125 193.367188 279.304688 180.683594 277.332031 C 162.546875 274.507812 144.789062 271.375 132.375 266.089844 C 128.425781 272.398438 130.261719 277.402344 134.148438 281.714844 C 139.945312 288.148438 150.171875 293.425781 164.859375 296.546875 C 172.925781 298.257812 181.4375 299.792969 192.414062 300.070312 C 196.011719 300.164062 199.742188 300.179688 203.578125 300.128906 C 206.226562 300.09375 209.003906 299.980469 211.847656 299.816406 C 231.164062 298.710938 262.285156 293.59375 280.070312 283.273438 C 284.132812 280.914062 286.191406 279.617188 288.769531 277.324219 Z M 288.769531 277.324219 " fill-opacity="1" fill-rule="evenodd"/><path fill="#ffffff" d="M 288.769531 283.183594 C 283.808594 284.464844 279.703125 288.683594 276.792969 290.886719 C 272.296875 294.289062 266.410156 297.285156 260.824219 299.386719 C 250.230469 303.375 242.765625 303.523438 235.890625 304.050781 C 218.40625 305.390625 200.851562 306.761719 186.367188 305.882812 C 184.957031 311.082031 188.097656 314.175781 192.4375 316.429688 C 200.269531 320.496094 213.890625 321.164062 230.5625 319.179688 C 232.9375 318.894531 235.304688 318.625 237.855469 318.195312 C 247.175781 316.628906 260.613281 313.390625 273.089844 305.363281 C 274.503906 304.453125 275.824219 303.519531 277.023438 302.601562 C 285.457031 296.164062 287.066406 290.964844 287.941406 286.976562 C 288.214844 285.726562 287.617188 284.808594 288.769531 283.183594 Z M 288.769531 283.183594 " fill-opacity="1" fill-rule="evenodd"/><path fill="#ffffff" d="M 296.429688 292.972656 C 293.480469 295.46875 291.179688 299.011719 288.324219 301.675781 C 281.582031 307.972656 274.460938 313.457031 267.195312 318.316406 C 261.9375 321.832031 256.519531 324.613281 251.148438 327.5625 C 250.417969 327.964844 249.222656 328.601562 248.539062 329.210938 C 248.167969 329.539062 247.933594 330.101562 248.195312 330.445312 C 252.550781 331.554688 257.121094 332.117188 261.867188 331.730469 C 264.863281 331.488281 267.945312 331.152344 271.015625 329.902344 C 273.488281 328.894531 275.808594 327 278.082031 325.183594 C 281.691406 322.304688 285.140625 319.035156 288.277344 315.261719 C 292.3125 310.398438 295.265625 303.964844 296.257812 297.75 C 296.546875 295.9375 296.503906 295.484375 296.527344 293.730469 C 296.53125 293.503906 296.550781 293.140625 296.429688 292.972656 Z M 296.429688 292.972656 " fill-opacity="1" fill-rule="evenodd"/></svg>