<svg xmlns="http://www.w3.org/2000/svg" xmlns:xlink="http://www.w3.org/1999/xlink" width="500" zoomAndPan="magnify" viewBox="0 0 375 374.999991" height="500" preserveAspectRatio="xMidYMid meet" version="1.0"><defs><g/><clipPath id="0f899edb04"><path d="M 13.652344 163.652344 L 61.347656 163.652344 L 61.347656 211.347656 L 13.652344 211.347656 Z M 13.652344 163.652344 " clip-rule="nonzero"/></clipPath><clipPath id="831172d521"><path d="M 0.652344 0.652344 L 48.347656 0.652344 L 48.347656 48.347656 L 0.652344 48.347656 Z M 0.652344 0.652344 " clip-rule="nonzero"/></clipPath><clipPath id="5b9134160e"><rect x="0" width="49" y="0" height="49"/></clipPath><clipPath id="d1c949023f"><path d="M 24.675781 169.910156 L 47 169.910156 L 47 196 L 24.675781 196 Z M 24.675781 169.910156 " clip-rule="nonzero"/></clipPath><clipPath id="b0c7854a9d"><path d="M 44 200 L 50.175781 200 L 50.175781 205.160156 L 44 205.160156 Z M 44 200 " clip-rule="nonzero"/></clipPath></defs><g clip-path="url(#0f899edb04)"><g transform="matrix(1, 0, 0, 1, 13, 163)"><g clip-path="url(#5b9134160e)"><g clip-path="url(#831172d521)"><path fill="#c3976c" d="M 0.652344 0.652344 L 48.347656 0.652344 L 48.347656 48.347656 L 0.652344 48.347656 Z M 0.652344 0.652344 " fill-opacity="1" fill-rule="nonzero"/></g></g></g></g><g fill="#0d0d0d" fill-opacity="1"><g transform="translate(193.840158, 199.124987)"><g><path d="M 1.78125 0 L 1.78125 -17.046875 L 4.234375 -17.046875 L 4.234375 -15.0625 L 4.359375 -15.0625 C 4.628906 -15.726562 5.003906 -16.289062 5.484375 -16.75 C 5.972656 -17.21875 6.691406 -17.453125 7.640625 -17.453125 C 8.628906 -17.453125 9.363281 -17.203125 9.84375 -16.703125 C 10.332031 -16.210938 10.628906 -15.566406 10.734375 -14.765625 L 10.84375 -14.765625 C 11.144531 -15.535156 11.582031 -16.175781 12.15625 -16.6875 C 12.726562 -17.195312 13.523438 -17.453125 14.546875 -17.453125 C 15.929688 -17.453125 16.859375 -16.96875 17.328125 -16 C 17.804688 -15.03125 18.046875 -13.640625 18.046875 -11.828125 L 18.046875 0 L 15.59375 0 L 15.59375 -11.40625 C 15.59375 -12.851562 15.441406 -13.859375 15.140625 -14.421875 C 14.847656 -14.984375 14.304688 -15.265625 13.515625 -15.265625 C 12.804688 -15.265625 12.234375 -15.035156 11.796875 -14.578125 C 11.359375 -14.128906 11.140625 -13.445312 11.140625 -12.53125 L 11.140625 0 L 8.6875 0 L 8.6875 -11.40625 C 8.6875 -12.851562 8.535156 -13.859375 8.234375 -14.421875 C 7.941406 -14.984375 7.410156 -15.265625 6.640625 -15.265625 C 5.929688 -15.265625 5.351562 -15.035156 4.90625 -14.578125 C 4.457031 -14.128906 4.234375 -13.445312 4.234375 -12.53125 L 4.234375 0 Z M 1.78125 0 "/></g></g></g><g fill="#0d0d0d" fill-opacity="1"><g transform="translate(213.661255, 199.124987)"><g><path d="M 16.359375 0 C 15.328125 0 14.585938 -0.265625 14.140625 -0.796875 C 13.703125 -1.328125 13.425781 -1.988281 13.3125 -2.78125 L 13.15625 -2.78125 C 12.78125 -1.78125 12.175781 -1 11.34375 -0.4375 C 10.519531 0.113281 9.414062 0.390625 8.03125 0.390625 C 6.25 0.390625 4.828125 -0.0664062 3.765625 -0.984375 C 2.710938 -1.910156 2.1875 -3.179688 2.1875 -4.796875 C 2.1875 -6.378906 2.765625 -7.597656 3.921875 -8.453125 C 5.078125 -9.316406 6.941406 -9.75 9.515625 -9.75 L 13.15625 -9.75 L 13.15625 -11.4375 C 13.15625 -12.6875 12.800781 -13.625 12.09375 -14.25 C 11.382812 -14.882812 10.382812 -15.203125 9.09375 -15.203125 C 7.945312 -15.203125 7.007812 -14.972656 6.28125 -14.515625 C 5.550781 -14.066406 4.96875 -13.457031 4.53125 -12.6875 L 2.75 -14.015625 C 2.96875 -14.453125 3.265625 -14.878906 3.640625 -15.296875 C 4.015625 -15.710938 4.472656 -16.082031 5.015625 -16.40625 C 5.566406 -16.726562 6.195312 -16.984375 6.90625 -17.171875 C 7.613281 -17.359375 8.394531 -17.453125 9.25 -17.453125 C 11.257812 -17.453125 12.851562 -16.941406 14.03125 -15.921875 C 15.207031 -14.910156 15.796875 -13.503906 15.796875 -11.703125 L 15.796875 -2.3125 L 18.171875 -2.3125 L 18.171875 0 Z M 8.5 -1.8125 C 9.175781 -1.8125 9.796875 -1.894531 10.359375 -2.0625 C 10.921875 -2.226562 11.410156 -2.445312 11.828125 -2.71875 C 12.242188 -3 12.566406 -3.332031 12.796875 -3.71875 C 13.035156 -4.101562 13.15625 -4.515625 13.15625 -4.953125 L 13.15625 -7.765625 L 9.515625 -7.765625 C 7.929688 -7.765625 6.773438 -7.539062 6.046875 -7.09375 C 5.316406 -6.65625 4.953125 -6.019531 4.953125 -5.1875 L 4.953125 -4.5 C 4.953125 -3.613281 5.265625 -2.941406 5.890625 -2.484375 C 6.523438 -2.035156 7.394531 -1.8125 8.5 -1.8125 Z M 8.5 -1.8125 "/></g></g></g><g fill="#0d0d0d" fill-opacity="1"><g transform="translate(233.482352, 199.124987)"><g><path d="M 2.546875 -2.25 L 7.53125 -2.25 L 7.53125 -14.8125 L 2.546875 -14.8125 L 2.546875 -17.046875 L 10.171875 -17.046875 L 10.171875 -12.75 L 10.34375 -12.75 C 10.695312 -14.09375 11.363281 -15.144531 12.34375 -15.90625 C 13.320312 -16.664062 14.570312 -17.046875 16.09375 -17.046875 L 18.46875 -17.046875 L 18.46875 -14.40625 L 15.265625 -14.40625 C 13.742188 -14.40625 12.515625 -13.960938 11.578125 -13.078125 C 10.640625 -12.203125 10.171875 -11.046875 10.171875 -9.609375 L 10.171875 -2.25 L 16.78125 -2.25 L 16.78125 0 L 2.546875 0 Z M 2.546875 -2.25 "/></g></g></g><g fill="#0d0d0d" fill-opacity="1"><g transform="translate(253.303449, 199.124987)"><g><path d="M 3.46875 -24.453125 L 6.109375 -24.453125 L 6.109375 -9.015625 L 6.25 -9.015625 L 9.21875 -11.828125 L 14.90625 -17.046875 L 18.140625 -17.046875 L 11.078125 -10.375 L 18.96875 0 L 15.703125 0 L 9.0625 -8.859375 L 6.109375 -6.1875 L 6.109375 0 L 3.46875 0 Z M 3.46875 -24.453125 "/></g></g></g><g fill="#0d0d0d" fill-opacity="1"><g transform="translate(273.124546, 199.124987)"><g><path d="M 14.046875 -2.78125 L 13.90625 -2.78125 C 12.8125 -0.664062 11.0625 0.390625 8.65625 0.390625 C 6.5625 0.390625 4.925781 -0.390625 3.75 -1.953125 C 2.570312 -3.515625 1.984375 -5.707031 1.984375 -8.53125 C 1.984375 -11.34375 2.570312 -13.53125 3.75 -15.09375 C 4.925781 -16.664062 6.5625 -17.453125 8.65625 -17.453125 C 11.0625 -17.453125 12.8125 -16.394531 13.90625 -14.28125 L 14.046875 -14.28125 L 14.046875 -24.453125 L 16.6875 -24.453125 L 16.6875 0 L 14.046875 0 Z M 9.6875 -1.953125 C 10.28125 -1.953125 10.835938 -2.023438 11.359375 -2.171875 C 11.890625 -2.328125 12.351562 -2.554688 12.75 -2.859375 C 13.144531 -3.160156 13.457031 -3.523438 13.6875 -3.953125 C 13.925781 -4.378906 14.046875 -4.878906 14.046875 -5.453125 L 14.046875 -11.59375 C 14.046875 -12.164062 13.925781 -12.664062 13.6875 -13.09375 C 13.457031 -13.53125 13.144531 -13.894531 12.75 -14.1875 C 12.351562 -14.488281 11.890625 -14.71875 11.359375 -14.875 C 10.835938 -15.03125 10.28125 -15.109375 9.6875 -15.109375 C 8.144531 -15.109375 6.945312 -14.640625 6.09375 -13.703125 C 5.25 -12.765625 4.828125 -11.523438 4.828125 -9.984375 L 4.828125 -7.078125 C 4.828125 -5.535156 5.25 -4.296875 6.09375 -3.359375 C 6.945312 -2.421875 8.144531 -1.953125 9.6875 -1.953125 Z M 9.6875 -1.953125 "/></g></g></g><g fill="#0d0d0d" fill-opacity="1"><g transform="translate(292.945643, 199.124987)"><g><path d="M 9.921875 0.390625 C 8.722656 0.390625 7.644531 0.179688 6.6875 -0.234375 C 5.726562 -0.648438 4.910156 -1.25 4.234375 -2.03125 C 3.566406 -2.8125 3.054688 -3.75 2.703125 -4.84375 C 2.359375 -5.9375 2.1875 -7.164062 2.1875 -8.53125 C 2.1875 -9.875 2.359375 -11.09375 2.703125 -12.1875 C 3.054688 -13.289062 3.566406 -14.234375 4.234375 -15.015625 C 4.910156 -15.796875 5.726562 -16.394531 6.6875 -16.8125 C 7.644531 -17.238281 8.722656 -17.453125 9.921875 -17.453125 C 11.109375 -17.453125 12.179688 -17.238281 13.140625 -16.8125 C 14.097656 -16.394531 14.910156 -15.796875 15.578125 -15.015625 C 16.253906 -14.234375 16.765625 -13.289062 17.109375 -12.1875 C 17.460938 -11.09375 17.640625 -9.875 17.640625 -8.53125 C 17.640625 -7.164062 17.460938 -5.9375 17.109375 -4.84375 C 16.765625 -3.75 16.253906 -2.8125 15.578125 -2.03125 C 14.910156 -1.25 14.097656 -0.648438 13.140625 -0.234375 C 12.179688 0.179688 11.109375 0.390625 9.921875 0.390625 Z M 9.921875 -1.890625 C 11.390625 -1.890625 12.578125 -2.328125 13.484375 -3.203125 C 14.390625 -4.085938 14.84375 -5.453125 14.84375 -7.296875 L 14.84375 -9.75 C 14.84375 -11.601562 14.390625 -12.96875 13.484375 -13.84375 C 12.578125 -14.726562 11.390625 -15.171875 9.921875 -15.171875 C 8.441406 -15.171875 7.25 -14.726562 6.34375 -13.84375 C 5.4375 -12.96875 4.984375 -11.601562 4.984375 -9.75 L 4.984375 -7.296875 C 4.984375 -5.453125 5.4375 -4.085938 6.34375 -3.203125 C 7.25 -2.328125 8.441406 -1.890625 9.921875 -1.890625 Z M 9.921875 -1.890625 "/></g></g></g><g fill="#0d0d0d" fill-opacity="1"><g transform="translate(312.76674, 199.124987)"><g><path d="M 0.984375 -17.046875 L 3.34375 -17.046875 L 5.28125 -2.3125 L 5.578125 -2.3125 L 8.5 -17.046875 L 11.40625 -17.046875 L 14.3125 -2.3125 L 14.609375 -2.3125 L 16.5625 -17.046875 L 18.84375 -17.046875 L 16.21875 0 L 12.796875 0 L 10.078125 -14.28125 L 9.8125 -14.28125 L 7.03125 0 L 3.609375 0 Z M 0.984375 -17.046875 "/></g></g></g><g fill="#0d0d0d" fill-opacity="1"><g transform="translate(332.587837, 199.124987)"><g><path d="M 3.234375 0 L 3.234375 -17.046875 L 5.875 -17.046875 L 5.875 -14.28125 L 6.015625 -14.28125 C 6.191406 -14.695312 6.410156 -15.097656 6.671875 -15.484375 C 6.941406 -15.867188 7.269531 -16.203125 7.65625 -16.484375 C 8.039062 -16.773438 8.492188 -17.007812 9.015625 -17.1875 C 9.546875 -17.363281 10.164062 -17.453125 10.875 -17.453125 C 12.65625 -17.453125 14.082031 -16.882812 15.15625 -15.75 C 16.238281 -14.613281 16.78125 -13.007812 16.78125 -10.9375 L 16.78125 0 L 14.140625 0 L 14.140625 -10.46875 C 14.140625 -12.039062 13.796875 -13.207031 13.109375 -13.96875 C 12.429688 -14.726562 11.429688 -15.109375 10.109375 -15.109375 C 9.578125 -15.109375 9.054688 -15.039062 8.546875 -14.90625 C 8.046875 -14.769531 7.597656 -14.566406 7.203125 -14.296875 C 6.804688 -14.035156 6.484375 -13.695312 6.234375 -13.28125 C 5.992188 -12.863281 5.875 -12.378906 5.875 -11.828125 L 5.875 0 Z M 3.234375 0 "/></g></g></g><g clip-path="url(#d1c949023f)"><path fill="#f6f6f4" d="M 46.671875 195.007812 L 43.558594 192.988281 C 42.144531 191.847656 38.183594 188.539062 36.886719 187.308594 C 35.710938 186.195312 34.398438 184.546875 33.449219 183.3125 C 32.566406 182.160156 31.179688 180.273438 30.507812 179.027344 C 29.519531 177.199219 28.664062 175.324219 27.734375 173.476562 C 27.304688 172.628906 26.835938 171.789062 26.421875 170.9375 C 26.320312 170.722656 26.269531 170.492188 26.183594 170.273438 C 26.171875 170.242188 26.007812 169.777344 25.828125 170.011719 C 25.460938 170.492188 25.511719 171.074219 25.425781 171.601562 C 25.308594 172.296875 25.15625 172.984375 25.042969 173.679688 C 24.792969 175.269531 24.453125 176.953125 24.875 178.554688 C 25.613281 181.363281 27.679688 183.828125 29.90625 186.035156 C 31.640625 187.75 33.582031 189.339844 35.898438 190.570312 C 37.320312 191.324219 41.332031 193.160156 42.84375 193.785156 C 43.730469 194.152344 44.644531 194.476562 45.554688 194.796875 C 45.808594 194.886719 46.078125 194.941406 46.339844 195.007812 C 46.402344 195.023438 46.613281 195.082031 46.671875 195.007812 Z M 46.671875 195.007812 " fill-opacity="1" fill-rule="evenodd"/></g><path fill="#f6f6f4" d="M 48.199219 197.207031 C 45.539062 196.472656 42.75 195.867188 40.296875 194.832031 C 36.710938 193.316406 33.53125 191.402344 30.488281 189.398438 C 28.652344 188.191406 26.765625 186.988281 25.265625 185.550781 C 24.9375 187.457031 26.117188 189.179688 27.238281 190.761719 C 28.324219 192.296875 29.519531 193.84375 31.339844 194.984375 C 33.3125 196.222656 35.789062 196.988281 38.328125 197.535156 C 40.503906 198.003906 42.847656 198.269531 45.199219 197.945312 C 45.882812 197.851562 46.558594 197.710938 47.226562 197.5625 C 47.46875 197.511719 47.695312 197.421875 47.929688 197.347656 C 48.003906 197.324219 48.171875 197.277344 48.199219 197.207031 Z M 48.199219 197.207031 " fill-opacity="1" fill-rule="evenodd"/><path fill="#f6f6f4" d="M 49.371094 198.648438 C 48.617188 198.671875 47.671875 198.855469 46.820312 198.976562 C 45.863281 199.113281 44.957031 199.191406 44.128906 199.222656 C 43.222656 199.253906 42.210938 199.214844 41.496094 199.179688 C 39.730469 199.085938 38.183594 198.878906 36.699219 198.648438 C 34.570312 198.316406 32.488281 197.949219 31.035156 197.328125 C 30.570312 198.070312 30.785156 198.65625 31.242188 199.160156 C 31.921875 199.914062 33.121094 200.535156 34.84375 200.898438 C 35.789062 201.101562 36.785156 201.28125 38.074219 201.3125 C 38.496094 201.324219 38.933594 201.324219 39.382812 201.320312 C 39.691406 201.316406 40.019531 201.300781 40.351562 201.285156 C 42.617188 201.152344 46.265625 200.554688 48.347656 199.34375 C 48.824219 199.066406 49.066406 198.914062 49.371094 198.648438 Z M 49.371094 198.648438 " fill-opacity="1" fill-rule="evenodd"/><path fill="#f6f6f4" d="M 49.371094 199.332031 C 48.789062 199.484375 48.304688 199.976562 47.964844 200.238281 C 47.4375 200.636719 46.746094 200.988281 46.09375 201.234375 C 44.851562 201.699219 43.976562 201.71875 43.171875 201.78125 C 41.121094 201.9375 39.0625 202.097656 37.363281 201.996094 C 37.199219 202.605469 37.566406 202.964844 38.074219 203.230469 C 38.992188 203.707031 40.589844 203.785156 42.546875 203.554688 C 42.824219 203.519531 43.101562 203.488281 43.398438 203.4375 C 44.492188 203.253906 46.066406 202.875 47.53125 201.933594 C 47.695312 201.828125 47.851562 201.71875 47.992188 201.609375 C 48.980469 200.855469 49.167969 200.246094 49.273438 199.777344 C 49.304688 199.632812 49.234375 199.523438 49.371094 199.332031 Z M 49.371094 199.332031 " fill-opacity="1" fill-rule="evenodd"/><g clip-path="url(#b0c7854a9d)"><path fill="#f6f6f4" d="M 50.265625 200.480469 C 49.921875 200.773438 49.652344 201.1875 49.316406 201.5 C 48.527344 202.238281 47.691406 202.882812 46.839844 203.453125 C 46.222656 203.863281 45.589844 204.191406 44.957031 204.535156 C 44.875 204.582031 44.734375 204.65625 44.652344 204.730469 C 44.609375 204.769531 44.582031 204.832031 44.613281 204.875 C 45.121094 205.003906 45.660156 205.070312 46.214844 205.023438 C 46.566406 204.996094 46.925781 204.957031 47.289062 204.808594 C 47.578125 204.691406 47.847656 204.46875 48.117188 204.257812 C 48.539062 203.917969 48.945312 203.535156 49.3125 203.09375 C 49.785156 202.523438 50.128906 201.769531 50.246094 201.039062 C 50.28125 200.828125 50.277344 200.777344 50.277344 200.570312 C 50.277344 200.542969 50.28125 200.5 50.265625 200.480469 Z M 50.265625 200.480469 " fill-opacity="1" fill-rule="evenodd"/></g><g fill="#0d0d0d" fill-opacity="1"><g transform="translate(71.900375, 199.124987)"><g><path d="M 2.140625 -24.453125 L 7.03125 -24.453125 L 7.03125 -13.953125 L 7.234375 -13.953125 C 7.429688 -14.429688 7.671875 -14.878906 7.953125 -15.296875 C 8.242188 -15.710938 8.59375 -16.082031 9 -16.40625 C 9.40625 -16.726562 9.878906 -16.984375 10.421875 -17.171875 C 10.960938 -17.359375 11.578125 -17.453125 12.265625 -17.453125 C 13.078125 -17.453125 13.820312 -17.3125 14.5 -17.03125 C 15.1875 -16.757812 15.769531 -16.347656 16.25 -15.796875 C 16.738281 -15.242188 17.117188 -14.570312 17.390625 -13.78125 C 17.671875 -12.988281 17.8125 -12.070312 17.8125 -11.03125 L 17.8125 0 L 12.921875 0 L 12.921875 -10.375 C 12.921875 -12.582031 11.960938 -13.6875 10.046875 -13.6875 C 9.671875 -13.6875 9.300781 -13.632812 8.9375 -13.53125 C 8.570312 -13.4375 8.242188 -13.28125 7.953125 -13.0625 C 7.671875 -12.851562 7.445312 -12.59375 7.28125 -12.28125 C 7.113281 -11.976562 7.03125 -11.617188 7.03125 -11.203125 L 7.03125 0 L 2.140625 0 Z M 2.140625 -24.453125 "/></g></g></g><g fill="#0d0d0d" fill-opacity="1"><g transform="translate(91.721472, 199.124987)"><g><path d="M 10.375 0.390625 C 7.507812 0.390625 5.335938 -0.398438 3.859375 -1.984375 C 2.390625 -3.566406 1.65625 -5.722656 1.65625 -8.453125 C 1.65625 -9.847656 1.847656 -11.097656 2.234375 -12.203125 C 2.617188 -13.316406 3.164062 -14.265625 3.875 -15.046875 C 4.59375 -15.828125 5.460938 -16.421875 6.484375 -16.828125 C 7.515625 -17.242188 8.671875 -17.453125 9.953125 -17.453125 C 11.222656 -17.453125 12.363281 -17.242188 13.375 -16.828125 C 14.394531 -16.421875 15.253906 -15.84375 15.953125 -15.09375 C 16.660156 -14.351562 17.207031 -13.445312 17.59375 -12.375 C 17.976562 -11.300781 18.171875 -10.109375 18.171875 -8.796875 L 18.171875 -7.34375 L 6.515625 -7.34375 L 6.515625 -7.03125 C 6.515625 -5.9375 6.851562 -5.050781 7.53125 -4.375 C 8.21875 -3.707031 9.222656 -3.375 10.546875 -3.375 C 11.554688 -3.375 12.425781 -3.566406 13.15625 -3.953125 C 13.882812 -4.335938 14.507812 -4.847656 15.03125 -5.484375 L 17.6875 -2.609375 C 17.019531 -1.796875 16.09375 -1.09375 14.90625 -0.5 C 13.71875 0.09375 12.207031 0.390625 10.375 0.390625 Z M 9.984375 -13.953125 C 8.921875 -13.953125 8.078125 -13.625 7.453125 -12.96875 C 6.828125 -12.320312 6.515625 -11.445312 6.515625 -10.34375 L 6.515625 -10.078125 L 13.390625 -10.078125 L 13.390625 -10.34375 C 13.390625 -11.46875 13.082031 -12.347656 12.46875 -12.984375 C 11.863281 -13.628906 11.035156 -13.953125 9.984375 -13.953125 Z M 9.984375 -13.953125 "/></g></g></g><g fill="#0d0d0d" fill-opacity="1"><g transform="translate(111.542569, 199.124987)"><g><path d="M 2.453125 -3.796875 L 6.375 -3.796875 L 6.375 -13.25 L 2.453125 -13.25 L 2.453125 -17.046875 L 11.265625 -17.046875 L 11.265625 -12.234375 L 11.5 -12.234375 C 11.65625 -12.847656 11.867188 -13.445312 12.140625 -14.03125 C 12.421875 -14.613281 12.773438 -15.128906 13.203125 -15.578125 C 13.628906 -16.035156 14.148438 -16.394531 14.765625 -16.65625 C 15.390625 -16.914062 16.117188 -17.046875 16.953125 -17.046875 L 18.578125 -17.046875 L 18.578125 -12.5625 L 14.9375 -12.5625 C 13.726562 -12.5625 12.8125 -12.203125 12.1875 -11.484375 C 11.570312 -10.765625 11.265625 -9.890625 11.265625 -8.859375 L 11.265625 -3.796875 L 16.890625 -3.796875 L 16.890625 0 L 2.453125 0 Z M 2.453125 -3.796875 "/></g></g></g><g fill="#0d0d0d" fill-opacity="1"><g transform="translate(131.363666, 199.124987)"><g><path d="M 0.984375 0 L 0.984375 -17.046875 L 4.921875 -17.046875 L 4.921875 -14.546875 L 5.15625 -14.546875 C 5.414062 -15.335938 5.789062 -16.019531 6.28125 -16.59375 C 6.78125 -17.164062 7.484375 -17.453125 8.390625 -17.453125 C 10.046875 -17.453125 11.0625 -16.484375 11.4375 -14.546875 L 11.625 -14.546875 C 11.757812 -14.941406 11.925781 -15.3125 12.125 -15.65625 C 12.320312 -16.007812 12.5625 -16.316406 12.84375 -16.578125 C 13.132812 -16.847656 13.476562 -17.0625 13.875 -17.21875 C 14.269531 -17.375 14.734375 -17.453125 15.265625 -17.453125 C 17.648438 -17.453125 18.84375 -15.695312 18.84375 -12.1875 L 18.84375 0 L 14.90625 0 L 14.90625 -11.703125 C 14.90625 -12.492188 14.765625 -13.046875 14.484375 -13.359375 C 14.210938 -13.679688 13.859375 -13.84375 13.421875 -13.84375 C 13.003906 -13.84375 12.644531 -13.703125 12.34375 -13.421875 C 12.039062 -13.148438 11.890625 -12.726562 11.890625 -12.15625 L 11.890625 0 L 7.9375 0 L 7.9375 -11.703125 C 7.9375 -12.492188 7.804688 -13.046875 7.546875 -13.359375 C 7.296875 -13.679688 6.953125 -13.84375 6.515625 -13.84375 C 6.066406 -13.84375 5.6875 -13.703125 5.375 -13.421875 C 5.070312 -13.148438 4.921875 -12.726562 4.921875 -12.15625 L 4.921875 0 Z M 0.984375 0 "/></g></g></g><g fill="#0d0d0d" fill-opacity="1"><g transform="translate(151.184763, 199.124987)"><g><path d="M 10.375 0.390625 C 7.507812 0.390625 5.335938 -0.398438 3.859375 -1.984375 C 2.390625 -3.566406 1.65625 -5.722656 1.65625 -8.453125 C 1.65625 -9.847656 1.847656 -11.097656 2.234375 -12.203125 C 2.617188 -13.316406 3.164062 -14.265625 3.875 -15.046875 C 4.59375 -15.828125 5.460938 -16.421875 6.484375 -16.828125 C 7.515625 -17.242188 8.671875 -17.453125 9.953125 -17.453125 C 11.222656 -17.453125 12.363281 -17.242188 13.375 -16.828125 C 14.394531 -16.421875 15.253906 -15.84375 15.953125 -15.09375 C 16.660156 -14.351562 17.207031 -13.445312 17.59375 -12.375 C 17.976562 -11.300781 18.171875 -10.109375 18.171875 -8.796875 L 18.171875 -7.34375 L 6.515625 -7.34375 L 6.515625 -7.03125 C 6.515625 -5.9375 6.851562 -5.050781 7.53125 -4.375 C 8.21875 -3.707031 9.222656 -3.375 10.546875 -3.375 C 11.554688 -3.375 12.425781 -3.566406 13.15625 -3.953125 C 13.882812 -4.335938 14.507812 -4.847656 15.03125 -5.484375 L 17.6875 -2.609375 C 17.019531 -1.796875 16.09375 -1.09375 14.90625 -0.5 C 13.71875 0.09375 12.207031 0.390625 10.375 0.390625 Z M 9.984375 -13.953125 C 8.921875 -13.953125 8.078125 -13.625 7.453125 -12.96875 C 6.828125 -12.320312 6.515625 -11.445312 6.515625 -10.34375 L 6.515625 -10.078125 L 13.390625 -10.078125 L 13.390625 -10.34375 C 13.390625 -11.46875 13.082031 -12.347656 12.46875 -12.984375 C 11.863281 -13.628906 11.035156 -13.953125 9.984375 -13.953125 Z M 9.984375 -13.953125 "/></g></g></g><g fill="#0d0d0d" fill-opacity="1"><g transform="translate(171.00586, 199.124987)"><g><path d="M 9.71875 0.390625 C 7.820312 0.390625 6.171875 0.101562 4.765625 -0.46875 C 3.367188 -1.039062 2.320312 -1.820312 1.625 -2.8125 L 4.359375 -5.359375 C 5.023438 -4.628906 5.800781 -4.0625 6.6875 -3.65625 C 7.582031 -3.25 8.601562 -3.046875 9.75 -3.046875 C 10.71875 -3.046875 11.476562 -3.191406 12.03125 -3.484375 C 12.582031 -3.785156 12.859375 -4.242188 12.859375 -4.859375 C 12.859375 -5.335938 12.671875 -5.671875 12.296875 -5.859375 C 11.921875 -6.046875 11.398438 -6.195312 10.734375 -6.3125 L 8 -6.734375 C 7.226562 -6.847656 6.507812 -7.019531 5.84375 -7.25 C 5.1875 -7.476562 4.613281 -7.789062 4.125 -8.1875 C 3.644531 -8.59375 3.257812 -9.082031 2.96875 -9.65625 C 2.6875 -10.226562 2.546875 -10.921875 2.546875 -11.734375 C 2.546875 -13.515625 3.226562 -14.910156 4.59375 -15.921875 C 5.957031 -16.941406 7.875 -17.453125 10.34375 -17.453125 C 12.019531 -17.453125 13.445312 -17.222656 14.625 -16.765625 C 15.800781 -16.316406 16.742188 -15.675781 17.453125 -14.84375 L 15 -12.0625 C 14.5 -12.613281 13.847656 -13.078125 13.046875 -13.453125 C 12.253906 -13.828125 11.296875 -14.015625 10.171875 -14.015625 C 8.285156 -14.015625 7.34375 -13.441406 7.34375 -12.296875 C 7.34375 -11.785156 7.523438 -11.4375 7.890625 -11.25 C 8.265625 -11.0625 8.785156 -10.914062 9.453125 -10.8125 L 12.15625 -10.375 C 12.925781 -10.269531 13.640625 -10.097656 14.296875 -9.859375 C 14.960938 -9.628906 15.539062 -9.316406 16.03125 -8.921875 C 16.53125 -8.523438 16.921875 -8.039062 17.203125 -7.46875 C 17.492188 -6.894531 17.640625 -6.203125 17.640625 -5.390625 C 17.640625 -3.597656 16.953125 -2.1875 15.578125 -1.15625 C 14.203125 -0.125 12.25 0.390625 9.71875 0.390625 Z M 9.71875 0.390625 "/></g></g></g></svg>